<svg xmlns="http://www.w3.org/2000/svg" viewBox="0 0 122.88 122.88"><path d="M17.89 0h88.9c8.85 0 16.1 7.24 16.1 16.1v90.68c0 8.85-7.24 16.1-16.1 16.1H16.1c-8.85 0-16.1-7.24-16.1-16.1v-88.9C0 8.05 8.05 0 17.89 0zm12.07 61.48c0-9.91 2.76-17.64 8.29-23.15 5.53-5.53 13.22-8.29 23.1-8.29 10.11 0 17.91 2.72 23.38 8.13 5.47 5.43 8.2 13.04 8.2 22.81 0 7.1-1.19 12.91-3.58 17.45-2.39 4.54-5.86 8.08-10.37 10.61-4.53 2.53-10.16 3.79-16.9 3.79-6.85 0-12.52-1.09-17.01-3.27-4.48-2.19-8.13-5.64-10.92-10.37-2.79-4.7-4.19-10.61-4.19-17.71zm18.75.04c0 6.12 1.15 10.54 3.42 13.21 2.29 2.67 5.4 4.02 9.33 4.02 4.03 0 7.17-1.32 9.38-3.93 2.22-2.63 3.32-7.33 3.32-14.13 0-5.71-1.16-9.89-3.47-12.52-2.32-2.64-5.45-3.96-9.41-3.96-3.79 0-6.85 1.34-9.14 4.02-2.28 2.67-3.43 7.11-3.43 13.29z" fill-rule="evenodd" clip-rule="evenodd"/></svg>